ModelForces
version=1
nRows=4
nColumns=155
inDegrees=no

This file contains the forces exerted on a model during a simulation.

A force is a generalized force, meaning that it can be either a force (N) or a torque (Nm).

Units are S.I. units (second, meters, Newtons, ...)
Angles are in degrees.

endheader
time	glut_med1_r	glut_med2_r	glut_med3_r	glut_min1_r	glut_min2_r	glut_min3_r	semimem_r	semiten_r	bifemlh_r	bifemsh_r	sar_r	add_long_r	add_brev_r	add_mag1_r	add_mag2_r	add_mag3_r	tfl_r	pect_r	grac_r	glut_max1_r	glut_max2_r	glut_max3_r	iliacus_r	psoas_r	quad_fem_r	gem_r	peri_r	rect_fem_r	vas_med_r	vas_int_r	vas_lat_r	med_gas_r	lat_gas_r	soleus_r	tib_post_r	flex_dig_r	flex_hal_r	tib_ant_r	per_brev_r	per_long_r	per_tert_r	ext_dig_r	ext_hal_r	glut_med1_l	glut_med2_l	glut_med3_l	glut_min1_l	glut_min2_l	glut_min3_l	semimem_l	semiten_l	bifemlh_l	bifemsh_l	sar_l	add_long_l	add_brev_l	add_mag1_l	add_mag2_l	add_mag3_l	tfl_l	pect_l	grac_l	glut_max1_l	glut_max2_l	glut_max3_l	iliacus_l	psoas_l	quad_fem_l	gem_l	peri_l	rect_fem_l	vas_med_l	vas_int_l	vas_lat_l	med_gas_l	lat_gas_l	soleus_l	tib_post_l	flex_dig_l	flex_hal_l	tib_ant_l	per_brev_l	per_long_l	per_tert_l	ext_dig_l	ext_hal_l	ercspn_r	ercspn_l	intobl_r	intobl_l	extobl_r	extobl_l	femur_lat_meniscii_r.femur_lat_r.force.X	femur_lat_meniscii_r.femur_lat_r.force.Y	femur_lat_meniscii_r.femur_lat_r.force.Z	femur_lat_meniscii_r.femur_lat_r.torque.X	femur_lat_meniscii_r.femur_lat_r.torque.Y	femur_lat_meniscii_r.femur_lat_r.torque.Z	femur_lat_meniscii_r.meniscus_lat_r.force.X	femur_lat_meniscii_r.meniscus_lat_r.force.Y	femur_lat_meniscii_r.meniscus_lat_r.force.Z	femur_lat_meniscii_r.meniscus_lat_r.torque.X	femur_lat_meniscii_r.meniscus_lat_r.torque.Y	femur_lat_meniscii_r.meniscus_lat_r.torque.Z	femur_med_meniscii_r.femur_med_r.force.X	femur_med_meniscii_r.femur_med_r.force.Y	femur_med_meniscii_r.femur_med_r.force.Z	femur_med_meniscii_r.femur_med_r.torque.X	femur_med_meniscii_r.femur_med_r.torque.Y	femur_med_meniscii_r.femur_med_r.torque.Z	femur_med_meniscii_r.meniscus_med_r.force.X	femur_med_meniscii_r.meniscus_med_r.force.Y	femur_med_meniscii_r.meniscus_med_r.force.Z	femur_med_meniscii_r.meniscus_med_r.torque.X	femur_med_meniscii_r.meniscus_med_r.torque.Y	femur_med_meniscii_r.meniscus_med_r.torque.Z	femur_med_tibia_r.tibia_upper_r.force.X	femur_med_tibia_r.tibia_upper_r.force.Y	femur_med_tibia_r.tibia_upper_r.force.Z	femur_med_tibia_r.tibia_upper_r.torque.X	femur_med_tibia_r.tibia_upper_r.torque.Y	femur_med_tibia_r.tibia_upper_r.torque.Z	femur_med_tibia_r.femur_med_r.force.X	femur_med_tibia_r.femur_med_r.force.Y	femur_med_tibia_r.femur_med_r.force.Z	femur_med_tibia_r.femur_med_r.torque.X	femur_med_tibia_r.femur_med_r.torque.Y	femur_med_tibia_r.femur_med_r.torque.Z	femur_lat_tibia_r.tibia_upper_r.force.X	femur_lat_tibia_r.tibia_upper_r.force.Y	femur_lat_tibia_r.tibia_upper_r.force.Z	femur_lat_tibia_r.tibia_upper_r.torque.X	femur_lat_tibia_r.tibia_upper_r.torque.Y	femur_lat_tibia_r.tibia_upper_r.torque.Z	femur_lat_tibia_r.femur_lat_r.force.X	femur_lat_tibia_r.femur_lat_r.force.Y	femur_lat_tibia_r.femur_lat_r.force.Z	femur_lat_tibia_r.femur_lat_r.torque.X	femur_lat_tibia_r.femur_lat_r.torque.Y	femur_lat_tibia_r.femur_lat_r.torque.Z	aACL_R	pACL_R	aPCL_R	pPCL_R	aMCL_R	mMCL_R	pMCL_R	aLCL_R	mLCL_R	pLCL_R	aPCL_L	pPCL_L	aMCL_L	aLCL_L
      0.16955740	     11.19334392	      8.17399872	      8.78933709	      3.77727044	      4.39577607	      4.74147809	      5.63694469	    166.36045844	    174.10104755	    336.40292156	    126.62769023	      8.13325473	      5.86371537	      4.01736906	      3.56302819	      5.99619006	      6.29057933	      3.18787050	     97.99448027	      5.27740548	      8.02789991	      6.03087546	     27.23099061	     18.16864315	      5.19189348	      3.60385724	      6.18408037	     49.66468343	     29.67732522	     31.84217779	     43.17470978	      0.00000000	      0.00000000	      0.00000000	      0.00000000	      0.00000000	      0.00000000	     37.66895812	      3.60153175	      4.17022441	     24.16072994	     37.06327355	      9.55341125	     11.19334392	      8.17399872	      8.78933709	      3.77727044	      4.39577607	      4.74147809	      0.00000000	      6.04928542	     11.94466709	     10.33355351	      2.15542378	      8.13325473	      5.86371537	      4.01736906	      3.56302819	      5.99619006	      5.33986465	      3.18787050	      2.22431097	      5.27740548	      8.02789991	      6.03087546	     27.23099061	     18.16864315	      5.19189348	      3.60385724	      6.18408037	     16.60890253	      0.00000000	      0.00000000	      0.00000000	     21.03457871	      9.92054954	     49.80406617	     50.46162568	      5.33403335	      4.76866612	     12.94035592	      6.91304235	     17.86648103	      2.80933281	      8.62921876	      2.71542095	     35.55267828	     35.55267828	     13.18879119	     13.18879119	     30.57948536	     30.57948536	    389.54592271	    288.16613166	    101.00891494	    -47.65824918	      9.72627680	    156.09031215	   -389.54592271	   -288.16613166	   -101.00891494	      9.33288521	    -12.47164621	     -0.45442830	    761.68971303	    483.97719004	    -48.76192519	     28.85651372	    -14.36354890	    303.16147297	   -761.68971303	   -483.97719004	     48.76192519	     -8.94756257	     13.54359873	     -0.31030263	   -134.02768592	   -293.69117260	    103.21251555	     -6.45146376	      4.24183640	      3.77562336	    134.02768592	    293.69117260	   -103.21251555	     46.94142672	     -2.63841570	     53.36557227	      0.00000000	      0.00000000	      0.00000000	      0.00000000	      0.00000000	      0.00000000	      0.00000000	      0.00000000	      0.00000000	      0.00000000	      0.00000000	      0.00000000	     30.04714605	     19.97189283	    805.87579296	    518.57495875	      0.00000000	      0.00000000	      0.00000000	    -15.16347132	      0.00000000	      0.00000000	      0.00000000	      0.00000000	      0.00000001	      0.00000000
      0.17016763	     11.16520429	      8.15390970	      8.76747581	      3.76836884	      4.38604142	      4.72903788	      3.34173366	    166.39881673	    174.03873011	    335.77385023	    126.53230920	      8.11303507	      5.85002538	      4.03350002	      3.55411065	      5.98002832	      6.26991293	      3.18030447	     97.92751821	      5.26438692	      8.00805070	      6.01572956	     27.19400567	     18.12647256	      5.17939138	      3.59776078	      6.17644947	     50.08691831	     29.64836563	     31.82195980	     43.15117689	      0.00000000	      0.00000000	      0.00000000	      0.00000000	      0.00000000	      0.00000000	     37.75578569	      3.64742911	      4.24806480	     61.81594180	     37.37628760	      9.62347223	     11.16520429	      8.15390970	      8.76747581	      3.76836884	      4.38604142	      4.72903788	      0.00000000	      6.03346250	     11.91324184	     10.30864238	      2.15036798	      8.11303507	      5.85002538	      4.03350002	      3.55411065	      5.98002832	      5.32989713	      3.18030447	      2.21900181	      5.26438692	      8.00805070	      6.01572956	     27.19400567	     18.12647256	      5.17939138	      3.59776078	      6.17644947	     16.56206599	      0.00000000	      0.00000000	      0.00000000	     21.01614267	      9.90986126	     49.68558183	     50.40141190	      5.31921225	      4.75467849	     12.90561497	      6.89341309	     17.82911550	      2.80283534	      8.60781004	      2.70939575	     35.46870558	     35.46870558	     13.15511560	     13.15511560	     30.54898110	     30.54898110	    395.20884807	    290.89509135	    101.17193462	    -47.77848995	      9.84050769	    158.35137101	   -395.20884807	   -290.89509135	   -101.17193462	      9.38454068	    -12.60573449	     -0.42200630	    768.87743870	    492.70573869	    -51.50043387	     30.07717474	    -14.44848896	    305.91835130	   -768.87743870	   -492.70573869	     51.50043387	     -9.09544994	     13.67959624	     -0.02700670	   -137.02259850	   -293.53465445	    102.21029232	     -6.40839224	      4.26603523	      3.74734564	    137.02259850	    293.53465445	   -102.21029232	     46.51436767	     -2.67569104	     54.58578273	      0.00000000	      0.00000000	      0.00000000	      0.00000000	      0.00000000	      0.00000000	      0.00000000	      0.00000000	      0.00000000	      0.00000000	      0.00000000	      0.00000000	     30.00603912	     19.88661450	    810.88774274	    520.24573526	      0.00000000	      0.00000000	      0.00000000	    -16.53685661	      0.00000000	      0.00000000	      0.00000000	      0.00000000	      0.00000001	      0.00000000
      0.17041806	     11.15370440	      8.14571280	      8.75855591	      3.76473654	      4.38206938	      4.72396171	      2.45933763	    166.43376797	    174.02834932	    335.64297843	    126.51633741	      8.10478500	      5.84443908	      4.03865442	      3.55047212	      5.97343388	      6.26104401	      3.17721719	     97.91815906	      5.25907512	      7.99995187	      6.00954983	     27.17891596	     18.10926742	      5.17429005	      3.59527359	      6.17328411	     50.26498506	     29.65017006	     31.81808907	     43.14466225	      0.00000000	      0.00000000	      0.00000000	      0.00000000	      0.00000000	      0.00000000	     37.78893284	      3.66481746	      4.27870687	     22.67409365	     37.51339175	      9.65471311	     11.15370440	      8.14571280	      8.75855591	      3.76473654	      4.38206938	      4.72396171	      0.00000000	      6.02700650	     11.90039547	     10.29847774	      2.14830494	      8.10478500	      5.84443908	      4.03865442	      3.55047212	      5.97343388	      5.32582981	      3.17721719	      2.21683544	      5.25907512	      7.99995187	      6.00954983	     27.17891596	     18.10926742	      5.17429005	      3.59527359	      6.17328411	     16.54295021	      0.00000000	      0.00000000	      0.00000000	     21.00846377	      9.90542728	     49.63703296	     50.37681175	      5.31309167	      4.74888624	     12.89142636	      6.88539735	     17.81383569	      2.80018440	      8.59918794	      2.70698214	     35.43444054	     35.43444054	     13.14137538	     13.14137538	     30.53653573	     30.53653573	    399.56793985	    288.26959247	    101.05367048	    -47.66398569	      9.93437261	    160.16526976	   -399.56793985	   -288.26959247	   -101.05367048	      9.30489725	    -12.70880840	     -0.57831620	    771.87595488	    488.60361397	    -50.57030790	     29.53944202	    -14.45150197	    307.15113639	   -771.87595488	   -488.60361397	     50.57030790	     -8.92740680	     13.66550193	     -0.13517084	   -138.17720708	   -293.13654472	    101.87134128	     -6.38918522	      4.27718811	      3.72941576	    138.17720708	    293.13654472	   -101.87134128	     46.36473222	     -2.69070727	     55.05811833	      0.00000000	      0.00000000	      0.00000000	      0.00000000	      0.00000000	      0.00000000	      0.00000000	      0.00000000	      0.00000000	      0.00000000	      0.00000000	      0.00000000	     30.16608175	     20.00667820	    813.04797956	    521.26020672	      0.00000000	      0.00000000	      0.00000000	    -16.56887127	      0.00000000	      0.00000000	      0.00000000	      0.00000000	      0.00000001	      0.00000000
      0.17066850	     11.14223285	      8.13754338	      8.74966600	      3.76111629	      4.37811064	      4.71890244	      1.60865231	    166.47134528	    174.01447843	    335.52585180	    126.50488329	      8.09656266	      5.83887128	      4.04306232	      3.54684583	      5.96686155	      6.25223000	      3.17414018	     97.91214530	      5.25378121	      7.99188031	      6.00339093	     27.16387753	     18.09212091	      5.16920574	      3.59279494	      6.17009951	     50.44005708	     29.63905850	     31.80680988	     43.12981924	      0.00000000	      0.00000000	      0.00000000	      0.00000000	      0.00000000	      0.00000000	     37.82186103	      3.68156178	      4.30873317	     24.22807374	     37.64515978	      9.68426788	     11.14223285	      8.13754338	      8.74966600	      3.76111629	      4.37811064	      4.71890244	      0.00000000	      6.02057225	     11.88757846	     10.28834706	      2.14624874	      8.09656266	      5.83887128	      4.04306232	      3.54684583	      5.96686155	      5.32177597	      3.17414018	      2.21467629	      5.25378121	      7.99188031	      6.00339093	     27.16387753	     18.09212091	      5.16920574	      3.59279494	      6.17009951	     16.52389556	      0.00000000	      0.00000000	      0.00000000	     21.00071994	      9.90096598	     49.58852983	     50.35227619	      5.30694884	      4.74306379	     12.87727774	      6.87740480	     17.79858780	      2.79754248	      8.59066004	      2.70460241	     35.40028933	     35.40028933	     13.12768144	     13.12768144	     30.52413279	     30.52413279	    400.23551497	    289.54317680	    102.88389156	    -48.43911504	      9.96932980	    160.41214683	   -400.23551497	   -289.54317680	   -102.88389156	      9.37148985	    -12.78099377	     -0.51977729	    773.76028183	    480.45326793	    -50.84752231	     29.47866761	    -14.45385505	    307.98397563	   -773.76028183	   -480.45326793	     50.84752231	     -8.77932939	     13.67572543	     -0.34910681	   -138.85784638	   -293.51630380	    101.60697271	     -6.38126684	      4.28487067	      3.74631460	    138.85784638	    293.51630380	   -101.60697271	     46.25689375	     -2.69982260	     55.32720141	      0.00000000	      0.00000000	      0.00000000	      0.00000000	      0.00000000	      0.00000000	      0.00000000	      0.00000000	      0.00000000	      0.00000000	      0.00000000	      0.00000000	     30.06852838	     19.95852099	    815.33960321	    522.66413625	      0.00000000	      0.00000000	      0.00000000	    -16.67910879	      0.00000000	      0.00000000	      0.00000000	      0.00000000	      0.00000001	      0.00000000
